<svg xmlns="http://www.w3.org/2000/svg" xmlns:xlink="http://www.w3.org/1999/xlink" width="2000" zoomAndPan="magnify" viewBox="0 0 1500 1499.999933" height="2000" preserveAspectRatio="xMidYMid meet" version="1.0"><defs><clipPath id="ea584c410e"><path d="M 150 206.25 L 1350 206.25 L 1350 1293.75 L 150 1293.75 Z M 150 206.25 " clip-rule="nonzero"/></clipPath><clipPath id="929aa5a2d0"><path d="M 476 0.25 L 809 0.25 L 809 542 L 476 542 Z M 476 0.25 " clip-rule="nonzero"/></clipPath><clipPath id="6d417392ec"><path d="M 0 9 L 1200 9 L 1200 1087.75 L 0 1087.75 Z M 0 9 " clip-rule="nonzero"/></clipPath><clipPath id="34b1f7d9fa"><rect x="0" width="1200" y="0" height="1088"/></clipPath></defs><g clip-path="url(#ea584c410e)"><g transform="matrix(1, 0, 0, 1, 150, 206)"><g clip-path="url(#34b1f7d9fa)"><g clip-path="url(#929aa5a2d0)"><path fill="#9b7e60" d="M 568.230469 176.335938 C 568.179688 176.523438 568.109375 176.699219 568.015625 176.871094 C 567.921875 177.042969 567.808594 177.199219 567.675781 177.339844 C 567.546875 177.484375 567.398438 177.609375 567.238281 177.71875 C 567.074219 177.824219 566.902344 177.910156 566.722656 177.976562 C 566.539062 178.042969 566.351562 178.085938 566.15625 178.105469 C 565.964844 178.125 565.769531 178.121094 565.578125 178.097656 C 565.386719 178.070312 565.199219 178.019531 565.019531 177.949219 C 564.839844 177.875 564.667969 177.785156 564.511719 177.671875 C 553.300781 169.679688 540.886719 159.269531 527.269531 146.445312 C 526.851562 146.054688 524.636719 144.878906 520.625 142.914062 C 520.285156 142.746094 519.921875 142.679688 519.542969 142.714844 C 519.160156 142.746094 518.8125 142.878906 518.496094 143.101562 C 506.863281 151.539062 505.585938 175.6875 506.902344 189.679688 C 508.085938 202.285156 512.1875 216.667969 519.207031 232.835938 C 519.609375 233.769531 519.707031 234.570312 519.5 235.238281 C 519.40625 235.484375 519.269531 235.703125 519.085938 235.890625 C 518.902344 236.078125 518.683594 236.21875 518.441406 236.3125 C 518.195312 236.402344 517.941406 236.441406 517.679688 236.421875 C 517.421875 236.402344 517.175781 236.328125 516.949219 236.199219 L 499.800781 226.757812 C 499.242188 226.445312 498.652344 226.226562 498.023438 226.097656 C 497.398438 225.96875 496.769531 225.933594 496.132812 225.996094 C 495.496094 226.054688 494.882812 226.210938 494.296875 226.457031 C 493.707031 226.707031 493.167969 227.035156 492.679688 227.445312 C 487.644531 231.707031 486.035156 244.71875 486.496094 251.53125 C 487.847656 272.082031 495.511719 290.394531 509.492188 306.464844 C 509.730469 306.734375 509.875 307.042969 509.925781 307.398438 C 509.976562 307.753906 509.929688 308.09375 509.777344 308.417969 C 509.625 308.742188 509.394531 309 509.089844 309.1875 C 508.785156 309.375 508.453125 309.460938 508.09375 309.453125 C 493.722656 309.199219 479.3125 301.515625 476.972656 323.632812 C 474.820312 343.792969 488.292969 353.398438 504.710938 367.957031 C 510.863281 373.402344 517.488281 381.394531 524.574219 391.9375 C 538.484375 412.628906 549.199219 427.835938 556.71875 437.554688 C 583.859375 472.632812 614.824219 501.375 649.609375 523.78125 C 663.9375 533.011719 677.542969 538.554688 690.421875 540.40625 C 719.726562 544.625 751.039062 527.9375 773.828125 509.429688 C 778.089844 505.964844 779.886719 504.375 779.84375 498.464844 C 779.71875 473.503906 790.621094 456.480469 804.011719 433.691406 C 813.367188 417.777344 806.285156 389.890625 799.625 371.238281 C 794.234375 356.128906 789.625 344.71875 785.796875 337.003906 C 761.066406 287.011719 742.238281 248.765625 729.316406 222.265625 C 709.792969 182.203125 693.722656 144.847656 681.105469 110.203125 C 672.976562 87.839844 666.890625 66.925781 662.851562 47.457031 C 659.382812 30.800781 655.894531 15.722656 652.386719 2.214844 C 652.347656 2.0625 652.289062 1.917969 652.214844 1.777344 C 652.136719 1.640625 652.046875 1.511719 651.941406 1.394531 C 651.835938 1.28125 651.71875 1.175781 651.589844 1.089844 C 651.460938 1 651.324219 0.929688 651.175781 0.871094 C 651.03125 0.816406 650.878906 0.78125 650.726562 0.761719 C 650.570312 0.742188 650.414062 0.742188 650.261719 0.761719 C 650.105469 0.78125 649.957031 0.816406 649.808594 0.871094 C 649.664062 0.925781 649.527344 0.996094 649.398438 1.085938 C 631.855469 13.074219 625.335938 39.582031 623.332031 60.011719 C 621.242188 81.511719 622.078125 104.828125 625.839844 129.964844 C 626.074219 131.550781 626.109375 133.179688 625.941406 134.851562 C 625.910156 135.128906 625.808594 135.378906 625.636719 135.601562 C 625.460938 135.820312 625.242188 135.976562 624.976562 136.070312 C 624.710938 136.164062 624.441406 136.179688 624.167969 136.117188 C 623.890625 136.058594 623.65625 135.925781 623.457031 135.726562 C 603.863281 115.863281 591.644531 93.472656 576.292969 66.128906 C 575.511719 64.738281 574.71875 63.722656 573.910156 63.082031 C 573.554688 62.796875 573.15625 62.59375 572.71875 62.472656 C 572.28125 62.351562 571.835938 62.320312 571.382812 62.382812 C 570.933594 62.441406 570.515625 62.589844 570.125 62.824219 C 569.738281 63.058594 569.410156 63.359375 569.148438 63.726562 C 547.28125 94.121094 556.804688 138.777344 567.707031 173.390625 C 568.167969 174.878906 568.339844 175.859375 568.230469 176.335938 Z M 568.230469 176.335938 " fill-opacity="1" fill-rule="nonzero"/></g><g clip-path="url(#6d417392ec)"><path fill="#9b7e60" d="M 1065.273438 523.53125 C 1065.019531 523.640625 1064.753906 523.679688 1064.476562 523.648438 C 1064.203125 523.617188 1063.953125 523.515625 1063.730469 523.351562 C 1063.507812 523.183594 1063.34375 522.972656 1063.234375 522.71875 C 1063.125 522.460938 1063.089844 522.199219 1063.121094 521.921875 C 1063.625 517.785156 1064.589844 514.261719 1066.027344 511.351562 C 1066.347656 510.699219 1066.765625 510.132812 1067.277344 509.660156 C 1070.761719 506.472656 1074.320312 502.664062 1077.953125 498.234375 C 1099.050781 472.605469 1097.691406 438.957031 1084.59375 409.964844 C 1084.5 409.75 1084.363281 409.574219 1084.183594 409.429688 C 1084 409.285156 1083.796875 409.195312 1083.566406 409.152344 C 1083.339844 409.109375 1083.113281 409.125 1082.894531 409.195312 C 1082.671875 409.261719 1082.480469 409.378906 1082.320312 409.546875 C 1056.167969 435.738281 1038.996094 466.296875 1057.335938 502.933594 C 1058.828125 505.914062 1059.898438 508.351562 1060.554688 510.246094 C 1060.914062 511.332031 1060.964844 512.433594 1060.699219 513.546875 L 1058.320312 523.28125 C 1057.816406 525.367188 1056.78125 527.136719 1055.207031 528.585938 C 1053.648438 530.019531 1048.320312 533.96875 1039.226562 540.429688 C 1028.128906 548.308594 1018 557.347656 1008.835938 567.539062 C 1008.707031 567.683594 1008.5625 567.808594 1008.402344 567.917969 C 1008.246094 568.027344 1008.074219 568.113281 1007.894531 568.183594 C 1007.714844 568.25 1007.53125 568.296875 1007.339844 568.324219 C 1007.148438 568.347656 1006.957031 568.351562 1006.765625 568.328125 C 1006.574219 568.308594 1006.386719 568.265625 1006.207031 568.203125 C 1006.023438 568.136719 1005.855469 568.054688 1005.691406 567.949219 C 1005.53125 567.84375 1005.382812 567.722656 1005.25 567.582031 C 1005.121094 567.441406 1005.003906 567.289062 1004.910156 567.121094 C 1000.007812 558.601562 993.65625 550.210938 985.859375 541.953125 C 985.066406 541.117188 984.347656 540.226562 983.707031 539.28125 C 977.460938 530.003906 973.742188 518.769531 968.792969 509.703125 C 956.121094 486.476562 936.847656 472.855469 910.976562 468.847656 C 874.695312 463.25 841.421875 479.394531 811.363281 500.59375 C 803.285156 506.289062 789.382812 516.21875 769.648438 530.382812 C 737.691406 553.316406 699.445312 564.929688 661.660156 546.546875 C 649.964844 540.851562 640.429688 535.3125 633.066406 529.921875 C 596.734375 503.3125 564.59375 471.394531 536.648438 434.171875 C 529.265625 424.328125 520.816406 412.429688 511.289062 398.476562 C 498.570312 379.84375 478.390625 365.933594 454.894531 349.953125 C 446.09375 343.980469 436.039062 337.710938 424.730469 331.152344 C 371.425781 300.183594 318.113281 264.488281 264.792969 224.0625 C 229.132812 197.019531 196.121094 168.941406 165.765625 139.824219 C 125.96875 101.640625 92.433594 58.421875 65.167969 10.171875 C 64.945312 9.78125 64.730469 9.519531 64.523438 9.378906 C 64.304688 9.234375 64.066406 9.140625 63.808594 9.097656 C 63.546875 9.058594 63.292969 9.074219 63.042969 9.148438 C 62.789062 9.21875 62.566406 9.339844 62.367188 9.515625 C 62.167969 9.6875 62.019531 9.890625 61.910156 10.128906 C 52.617188 31.039062 56.960938 53.199219 63.5 74.964844 C 70.710938 98.917969 81.414062 124.253906 95.601562 150.976562 C 97.398438 154.359375 98.582031 157.667969 99.152344 160.898438 C 99.171875 161.003906 99.175781 161.105469 99.167969 161.210938 C 99.160156 161.316406 99.136719 161.417969 99.101562 161.519531 C 99.066406 161.617188 99.019531 161.710938 98.957031 161.796875 C 98.898438 161.886719 98.828125 161.960938 98.75 162.03125 C 98.667969 162.101562 98.582031 162.15625 98.484375 162.203125 C 98.390625 162.25 98.289062 162.28125 98.1875 162.300781 C 98.082031 162.320312 97.980469 162.328125 97.875 162.320312 C 97.769531 162.3125 97.667969 162.289062 97.566406 162.257812 C 96.757812 161.964844 96.328125 161.796875 96.269531 161.753906 C 72.835938 143.761719 55.492188 128.558594 44.238281 116.136719 C 29.730469 100.136719 20.625 90.101562 16.917969 86.035156 C 16.304688 85.355469 15.636719 84.777344 14.914062 84.304688 C 14.78125 84.214844 14.644531 84.144531 14.496094 84.089844 C 14.351562 84.035156 14.199219 83.996094 14.042969 83.976562 C 13.890625 83.953125 13.734375 83.953125 13.578125 83.964844 C 13.421875 83.980469 13.269531 84.011719 13.117188 84.0625 C 12.96875 84.109375 12.828125 84.175781 12.695312 84.257812 C 12.558594 84.339844 12.4375 84.433594 12.324219 84.542969 C 12.210938 84.652344 12.113281 84.773438 12.027344 84.90625 C 11.945312 85.039062 11.875 85.179688 11.824219 85.328125 C 5.097656 104.042969 11.277344 129.253906 19.46875 147.214844 C 29.617188 169.484375 43.265625 190.816406 60.40625 211.214844 C 67.800781 220.015625 72.84375 225.992188 75.53125 229.136719 C 75.8125 229.46875 75.972656 229.847656 76.007812 230.28125 C 76.039062 230.714844 75.941406 231.117188 75.710938 231.484375 C 75.484375 231.855469 75.164062 232.117188 74.761719 232.28125 C 74.359375 232.441406 73.945312 232.464844 73.523438 232.355469 C 69.625 231.378906 65.546875 229.785156 61.285156 227.570312 C 40.730469 216.941406 23.894531 204.34375 5.261719 191.769531 C 5.089844 191.652344 4.902344 191.558594 4.707031 191.488281 C 4.507812 191.414062 4.304688 191.367188 4.097656 191.339844 C 3.886719 191.316406 3.679688 191.316406 3.472656 191.34375 C 3.261719 191.367188 3.058594 191.417969 2.863281 191.492188 C 2.667969 191.5625 2.480469 191.660156 2.308594 191.777344 C 2.132812 191.894531 1.976562 192.03125 1.832031 192.1875 C 1.691406 192.339844 1.570312 192.511719 1.46875 192.695312 C 1.367188 192.878906 1.289062 193.070312 1.230469 193.273438 C -4.34375 213.472656 10.777344 241.191406 22.246094 257.777344 C 34.527344 275.515625 49.691406 292.191406 67.738281 307.800781 C 69.035156 308.929688 69.890625 310.007812 70.308594 311.039062 C 70.421875 311.328125 70.449219 311.625 70.390625 311.925781 C 70.328125 312.230469 70.1875 312.496094 69.972656 312.714844 C 69.753906 312.9375 69.496094 313.082031 69.191406 313.148438 C 68.890625 313.214844 68.59375 313.195312 68.304688 313.085938 L 22.476562 296.5625 C 21.980469 296.386719 21.472656 296.304688 20.949219 296.316406 C 20.421875 296.328125 19.917969 296.4375 19.433594 296.636719 C 18.949219 296.835938 18.515625 297.121094 18.136719 297.480469 C 17.757812 297.84375 17.457031 298.261719 17.230469 298.738281 C 13.640625 306.382812 22.496094 323.824219 26.527344 330.234375 C 43.183594 356.789062 64.976562 379.027344 91.90625 396.949219 C 93.675781 398.132812 94.941406 399.304688 95.707031 400.460938 C 95.882812 400.71875 95.972656 401.003906 95.976562 401.3125 C 95.980469 401.625 95.902344 401.914062 95.734375 402.179688 C 95.566406 402.445312 95.34375 402.644531 95.058594 402.78125 C 94.773438 402.914062 94.472656 402.964844 94.160156 402.925781 L 61.429688 398.558594 C 61.082031 398.511719 60.730469 398.496094 60.375 398.511719 C 60.023438 398.53125 59.671875 398.578125 59.328125 398.660156 C 58.984375 398.742188 58.652344 398.851562 58.328125 398.996094 C 58.003906 399.136719 57.695312 399.308594 57.402344 399.503906 C 57.109375 399.703125 56.835938 399.929688 56.582031 400.175781 C 56.328125 400.425781 56.101562 400.695312 55.898438 400.984375 C 55.695312 401.273438 55.519531 401.582031 55.371094 401.902344 C 55.222656 402.226562 55.105469 402.558594 55.019531 402.902344 C 53.390625 409.359375 58.695312 419.382812 62.496094 424.792969 C 81.335938 451.570312 105.914062 471.15625 136.230469 483.550781 C 136.632812 483.710938 136.96875 483.96875 137.226562 484.316406 C 137.488281 484.667969 137.640625 485.058594 137.679688 485.492188 C 137.71875 485.925781 137.640625 486.339844 137.449219 486.730469 C 137.253906 487.121094 136.972656 487.433594 136.605469 487.664062 C 132.113281 490.570312 124.429688 494.808594 121.984375 498.671875 C 116.554688 507.363281 125.890625 521.566406 132.46875 527.664062 C 142.71875 537.191406 154.863281 542.371094 168.898438 543.207031 C 169.09375 543.21875 169.285156 543.253906 169.472656 543.316406 C 169.660156 543.375 169.835938 543.460938 170.003906 543.566406 C 170.167969 543.675781 170.316406 543.800781 170.449219 543.949219 C 170.578125 544.09375 170.691406 544.253906 170.78125 544.429688 C 170.871094 544.605469 170.9375 544.789062 170.976562 544.980469 C 171.019531 545.175781 171.035156 545.371094 171.027344 545.566406 C 171.015625 545.761719 170.980469 545.957031 170.921875 546.144531 C 170.863281 546.332031 170.78125 546.507812 170.671875 546.671875 C 167.734375 551.296875 165.292969 555.898438 163.34375 560.480469 C 153.964844 582.578125 168.625 603.507812 191.832031 604.972656 C 196.304688 605.265625 200.730469 605.097656 205.117188 604.46875 C 205.316406 604.441406 205.515625 604.4375 205.714844 604.457031 C 205.914062 604.476562 206.105469 604.519531 206.296875 604.585938 C 206.484375 604.652344 206.660156 604.742188 206.828125 604.851562 C 206.996094 604.960938 207.148438 605.089844 207.28125 605.238281 C 207.417969 605.382812 207.535156 605.546875 207.632812 605.722656 C 207.726562 605.894531 207.800781 606.082031 207.851562 606.273438 C 207.90625 606.46875 207.933594 606.664062 207.9375 606.863281 C 207.941406 607.0625 207.917969 607.261719 207.875 607.457031 C 207.011719 611.105469 206.050781 615.289062 204.992188 620.011719 C 200.335938 640.917969 217.230469 653.492188 235.070312 660.636719 C 247.839844 665.761719 261.554688 668.058594 276.21875 667.53125 C 276.394531 667.523438 276.566406 667.539062 276.738281 667.574219 C 276.910156 667.605469 277.074219 667.660156 277.234375 667.734375 C 277.394531 667.808594 277.542969 667.898438 277.679688 668.007812 C 277.816406 668.117188 277.941406 668.238281 278.050781 668.375 C 278.15625 668.511719 278.25 668.660156 278.324219 668.820312 C 278.398438 668.976562 278.453125 669.144531 278.488281 669.3125 C 278.523438 669.484375 278.535156 669.660156 278.53125 669.835938 C 278.527344 670.007812 278.5 670.179688 278.453125 670.351562 C 269.933594 702.222656 305.105469 712.542969 329.085938 713.359375 C 334.042969 713.523438 340.246094 713.296875 347.695312 712.667969 C 348.101562 712.632812 348.496094 712.671875 348.886719 712.78125 C 349.277344 712.890625 349.636719 713.066406 349.964844 713.304688 C 350.289062 713.546875 350.566406 713.835938 350.785156 714.175781 C 351.007812 714.515625 351.160156 714.882812 351.246094 715.28125 C 353.265625 724.304688 358.40625 731 366.664062 735.375 C 380.679688 742.808594 396.199219 740.554688 410.882812 736.0625 C 411.449219 735.890625 412.03125 735.8125 412.625 735.835938 C 413.21875 735.859375 413.796875 735.976562 414.351562 736.195312 C 414.90625 736.410156 415.410156 736.710938 415.863281 737.097656 C 416.320312 737.480469 416.699219 737.929688 417.003906 738.445312 C 429.953125 760.230469 453.429688 753.398438 475.300781 747.84375 C 476.847656 747.441406 477.695312 747.25 477.847656 747.28125 C 478.179688 747.332031 478.476562 747.46875 478.734375 747.6875 C 478.992188 747.90625 479.171875 748.175781 479.28125 748.496094 C 479.386719 748.816406 479.40625 749.140625 479.332031 749.46875 C 479.257812 749.796875 479.105469 750.085938 478.871094 750.328125 C 458.234375 771.605469 437.039062 791.144531 415.289062 808.941406 C 390.222656 829.453125 359.5625 846.414062 326.351562 858.988281 C 283.175781 875.34375 239.183594 883.53125 191.75 891.363281 C 180.59375 893.199219 169.128906 895.289062 163.175781 905.042969 C 155.238281 918.050781 150.664062 930.890625 149.453125 943.5625 C 148.71875 951.226562 159.917969 955.152344 166.328125 957.011719 C 166.691406 957.121094 167 957.316406 167.253906 957.601562 C 167.507812 957.882812 167.664062 958.210938 167.730469 958.585938 C 167.796875 958.957031 167.761719 959.320312 167.621094 959.675781 C 167.480469 960.027344 167.257812 960.316406 166.957031 960.542969 C 150.050781 972.976562 141.105469 989.75 140.113281 1010.863281 C 139.890625 1015.652344 141.527344 1019.960938 145.023438 1023.792969 C 148.992188 1028.113281 156.785156 1028.785156 163.257812 1029.304688 C 163.464844 1029.320312 163.664062 1029.359375 163.859375 1029.425781 C 164.058594 1029.488281 164.242188 1029.574219 164.417969 1029.683594 C 164.59375 1029.792969 164.753906 1029.921875 164.898438 1030.066406 C 165.042969 1030.214844 165.167969 1030.378906 165.277344 1030.554688 C 165.382812 1030.734375 165.464844 1030.921875 165.527344 1031.121094 C 165.589844 1031.316406 165.625 1031.519531 165.640625 1031.726562 C 165.652344 1031.933594 165.644531 1032.140625 165.609375 1032.347656 C 165.570312 1032.550781 165.511719 1032.75 165.429688 1032.941406 C 159.957031 1045.453125 155.71875 1063.957031 163.863281 1076.324219 C 177.003906 1096.3125 201.148438 1083.78125 217.273438 1075.445312 C 217.851562 1075.144531 218.464844 1075.023438 219.113281 1075.085938 C 219.761719 1075.152344 220.339844 1075.390625 220.847656 1075.800781 C 223.378906 1077.875 225.949219 1079.664062 228.554688 1081.167969 C 246.976562 1091.761719 274.152344 1071.414062 289.066406 1060.367188 C 289.515625 1060.027344 290.003906 1059.757812 290.527344 1059.546875 C 291.046875 1059.335938 291.589844 1059.199219 292.148438 1059.132812 C 292.707031 1059.0625 293.265625 1059.070312 293.820312 1059.148438 C 294.378906 1059.226562 294.917969 1059.375 295.4375 1059.59375 C 321.964844 1070.808594 353.859375 1044.992188 373.578125 1029.265625 C 393.476562 1013.390625 411.507812 995.410156 427.675781 975.332031 C 431.3125 970.820312 438.863281 960.773438 450.339844 945.191406 C 450.839844 944.507812 451.433594 943.921875 452.113281 943.4375 C 456.015625 940.582031 460.609375 938.542969 465.902344 937.316406 C 481.378906 933.703125 497.878906 932.199219 516.847656 931.40625 C 551.046875 929.957031 585.039062 925.585938 618.820312 918.289062 C 692.09375 902.433594 757.410156 862.769531 804.304688 804.011719 C 817.601562 787.355469 830.539062 766.664062 843.113281 741.933594 C 854.128906 720.265625 864.082031 697.9375 872.980469 674.945312 C 877.660156 662.886719 884.910156 648.027344 894.726562 630.371094 C 906.359375 609.460938 926.703125 588.011719 950.578125 581.054688 C 962.464844 577.609375 978.027344 579.507812 990.765625 581.222656 C 991.050781 581.257812 991.324219 581.332031 991.589844 581.441406 C 991.855469 581.550781 992.101562 581.695312 992.328125 581.867188 C 992.554688 582.042969 992.757812 582.242188 992.929688 582.46875 C 993.105469 582.695312 993.25 582.941406 993.363281 583.203125 C 993.472656 583.46875 993.550781 583.742188 993.589844 584.027344 C 993.628906 584.3125 993.632812 584.597656 993.601562 584.882812 C 993.566406 585.167969 993.5 585.445312 993.394531 585.714844 C 993.289062 585.980469 993.152344 586.234375 992.980469 586.464844 C 978.625 605.875 967.128906 626.277344 958.496094 647.664062 C 956.589844 652.371094 954.945312 657.449219 953.566406 662.894531 C 953.515625 663.09375 953.484375 663.300781 953.476562 663.507812 C 953.46875 663.714844 953.480469 663.921875 953.515625 664.128906 C 953.550781 664.332031 953.609375 664.53125 953.683594 664.726562 C 953.761719 664.917969 953.859375 665.101562 953.976562 665.273438 C 954.09375 665.449219 954.226562 665.605469 954.375 665.75 C 954.527344 665.894531 954.691406 666.023438 954.867188 666.132812 C 955.042969 666.242188 955.230469 666.332031 955.425781 666.402344 C 955.625 666.472656 955.824219 666.519531 956.03125 666.546875 L 960.878906 667.195312 C 961.402344 667.265625 961.921875 667.246094 962.4375 667.136719 C 962.957031 667.023438 963.441406 666.828125 963.890625 666.546875 C 964.339844 666.269531 964.726562 665.921875 965.058594 665.503906 C 965.386719 665.089844 965.636719 664.628906 965.808594 664.125 C 971.753906 646.636719 974.734375 637.863281 974.746094 637.808594 C 979.105469 624.996094 987.816406 609.28125 1000.878906 590.664062 C 1001.519531 589.742188 1002.324219 588.992188 1003.300781 588.40625 C 1008.203125 585.523438 1013.882812 584.523438 1020.34375 585.398438 C 1022.097656 585.636719 1025.078125 587.0625 1029.285156 589.679688 C 1058.925781 608.0625 1091.675781 596.449219 1115.277344 574.539062 C 1115.378906 574.445312 1115.464844 574.34375 1115.539062 574.234375 C 1115.613281 574.121094 1115.671875 574 1115.71875 573.875 C 1115.761719 573.746094 1115.792969 573.617188 1115.804688 573.484375 C 1115.820312 573.347656 1115.816406 573.214844 1115.800781 573.082031 C 1115.78125 572.949219 1115.746094 572.820312 1115.699219 572.695312 C 1115.648438 572.570312 1115.585938 572.453125 1115.507812 572.34375 C 1115.429688 572.234375 1115.339844 572.132812 1115.234375 572.046875 C 1115.132812 571.957031 1115.023438 571.882812 1114.902344 571.824219 C 1089.984375 559.019531 1058.652344 553.964844 1033.710938 569.566406 C 1029.847656 571.988281 1021.261719 580.074219 1014.664062 579.949219 C 1014.304688 579.9375 1013.988281 579.816406 1013.710938 579.59375 C 1013.429688 579.367188 1013.246094 579.082031 1013.160156 578.738281 C 1012.714844 576.980469 1013.472656 574.929688 1015.4375 572.574219 C 1035.222656 548.929688 1058.609375 531.042969 1085.597656 518.914062 C 1089.453125 517.1875 1093.445312 516.113281 1097.566406 515.695312 C 1098.652344 515.570312 1099.71875 515.675781 1100.761719 516.011719 C 1101.835938 516.34375 1105.59375 517.453125 1112.042969 519.332031 C 1148.050781 529.816406 1179.738281 505.085938 1199.8125 477.910156 C 1199.917969 477.769531 1199.980469 477.609375 1200.007812 477.4375 C 1200.035156 477.261719 1200.019531 477.089844 1199.960938 476.921875 C 1199.902344 476.753906 1199.808594 476.609375 1199.679688 476.484375 C 1199.550781 476.359375 1199.398438 476.273438 1199.226562 476.21875 C 1184.898438 472.0625 1168.105469 471.917969 1154.320312 472.792969 C 1136.046875 473.9375 1120.613281 480.640625 1108.011719 492.910156 C 1103.980469 496.835938 1100.28125 505.296875 1096.019531 509.367188 C 1094.960938 510.300781 1093.785156 511.046875 1092.492188 511.601562 Z M 1065.273438 523.53125 " fill-opacity="1" fill-rule="nonzero"/></g></g></g></g></svg>